<svg width="69" height="25" viewBox="0 0 69 25" fill="none" xmlns="http://www.w3.org/2000/svg">
<rect width="69" height="25" fill="#F5F5F5"/>
<path d="M18.241 1.023L14.356 24H4.588L0.444 1.023H7.437L9.435 16.082H10.064L11.581 1.023H18.241ZM26.0437 24H19.9387V6.462H26.0437V24ZM20.4197 5.056C19.9017 4.612 19.6427 3.89667 19.6427 2.91C19.6427 1.92333 19.9017 1.19567 20.4197 0.727C20.9377 0.258333 21.7887 0.0239999 22.9727 0.0239999C24.1567 0.0239999 25.0077 0.258333 25.5257 0.727C26.0437 1.19567 26.3027 1.92333 26.3027 2.91C26.3027 3.872 26.0437 4.58733 25.5257 5.056C25.0077 5.5 24.1567 5.722 22.9727 5.722C21.7887 5.722 20.9377 5.5 20.4197 5.056ZM43.0793 24H36.5303L35.2723 18.783H35.0503L33.8663 24H27.5023L30.4993 15.379L27.5023 6.277H34.2363L35.3093 11.938H35.5313L36.6783 6.277H43.0053L40.0453 15.268L43.0793 24ZM51.7971 11.124C51.1558 11.124 50.7364 11.346 50.5391 11.79C50.3418 12.2093 50.2431 12.863 50.2431 13.751H53.4621V12.863C53.4621 11.7037 52.9071 11.124 51.7971 11.124ZM51.9451 5.833C54.4858 5.833 56.2988 6.44967 57.3841 7.683C58.4941 8.89167 59.0491 10.6307 59.0491 12.9C59.0491 13.196 58.9628 14.528 58.7901 16.896H50.3541C50.3541 18.746 51.2051 19.671 52.9071 19.671C53.7211 19.671 55.3121 19.3873 57.6801 18.82L58.1981 23.408C56.1261 24.0493 54.0541 24.37 51.9821 24.37C49.4414 24.37 47.4928 23.5437 46.1361 21.891C44.7794 20.2137 44.1011 17.9443 44.1011 15.083C44.1011 8.91633 46.7158 5.833 51.9451 5.833ZM60.7653 19.93V0.282999H66.8703V17.969C66.8703 18.3883 66.9566 18.6843 67.1293 18.857C67.3266 19.0297 67.6596 19.116 68.1283 19.116L67.6473 24.37H65.6123C63.9843 24.37 62.7633 24.037 61.9493 23.371C61.1599 22.6803 60.7653 21.5333 60.7653 19.93Z" fill="#E9204F"/>
<path d="M18.241 1.023L19.227 1.18971L19.4243 0.0229981H18.241V1.023ZM14.356 24V25H15.2011L15.342 24.1667L14.356 24ZM4.588 24L3.60388 24.1775L3.75222 25H4.588V24ZM0.444 1.023V0.0229981H-0.752488L-0.540122 1.20049L0.444 1.023ZM7.437 1.023L8.42831 0.891473L8.31309 0.0229981H7.437V1.023ZM9.435 16.082L8.44369 16.2135L8.55892 17.082H9.435V16.082ZM10.064 16.082V17.082H10.9683L11.059 16.1822L10.064 16.082ZM11.581 1.023V0.0229981H10.6767L10.586 0.922768L11.581 1.023ZM17.255 0.856282L13.37 23.8333L15.342 24.1667L19.227 1.18971L17.255 0.856282ZM14.356 23H4.588V25H14.356V23ZM5.57212 23.8225L1.42812 0.845507L-0.540122 1.20049L3.60388 24.1775L5.57212 23.8225ZM0.444 2.023H7.437V0.0229981H0.444V2.023ZM6.44569 1.15452L8.44369 16.2135L10.4263 15.9505L8.42831 0.891473L6.44569 1.15452ZM9.435 17.082H10.064V15.082H9.435V17.082ZM11.059 16.1822L12.576 1.12323L10.586 0.922768L9.06904 15.9818L11.059 16.1822ZM11.581 2.023H18.241V0.0229981H11.581V2.023ZM26.0437 24V25H27.0437V24H26.0437ZM19.9387 24H18.9387V25H19.9387V24ZM19.9387 6.462V5.462H18.9387V6.462H19.9387ZM26.0437 6.462H27.0437V5.462H26.0437V6.462ZM25.5257 0.727L24.8548 1.46854L24.8548 1.46854L25.5257 0.727ZM25.5257 5.056L26.1765 5.81526L26.1866 5.80653L26.1966 5.79754L25.5257 5.056ZM26.0437 23H19.9387V25H26.0437V23ZM20.9387 24V6.462H18.9387V24H20.9387ZM19.9387 7.462H26.0437V5.462H19.9387V7.462ZM25.0437 6.462V24H27.0437V6.462H25.0437ZM21.0705 4.29674C20.8588 4.1153 20.6427 3.7386 20.6427 2.91H18.6427C18.6427 4.05473 18.9446 5.1087 19.7689 5.81526L21.0705 4.29674ZM20.6427 2.91C20.6427 2.08612 20.857 1.6799 21.0906 1.46854L19.7488 -0.0145362C18.9464 0.711435 18.6427 1.76054 18.6427 2.91H20.6427ZM21.0906 1.46854C21.3334 1.2488 21.8772 1.024 22.9727 1.024V-0.976C21.7001 -0.976 20.5419 -0.732131 19.7488 -0.0145362L21.0906 1.46854ZM22.9727 1.024C24.0681 1.024 24.6119 1.2488 24.8548 1.46854L26.1966 -0.0145362C25.4034 -0.732131 24.2452 -0.976 22.9727 -0.976V1.024ZM24.8548 1.46854C25.0884 1.6799 25.3027 2.08612 25.3027 2.91H27.3027C27.3027 1.76054 26.999 0.711435 26.1966 -0.0145364L24.8548 1.46854ZM25.3027 2.91C25.3027 3.7 25.0933 4.09867 24.8548 4.31446L26.1966 5.79754C26.9941 5.076 27.3027 4.044 27.3027 2.91H25.3027ZM24.8749 4.29674C24.6306 4.50611 24.0775 4.722 22.9727 4.722V6.722C24.2358 6.722 25.3847 6.49389 26.1765 5.81526L24.8749 4.29674ZM22.9727 4.722C21.8678 4.722 21.3147 4.50611 21.0705 4.29674L19.7689 5.81526C20.5606 6.49389 21.7095 6.722 22.9727 6.722V4.722ZM43.0793 24V25H44.4854L44.0239 23.6718L43.0793 24ZM36.5303 24L35.5581 24.2344L35.7427 25H36.5303V24ZM35.2723 18.783L36.2444 18.5486L36.0598 17.783H35.2723V18.783ZM35.0503 18.783V17.783H34.2518L34.0751 18.5617L35.0503 18.783ZM33.8663 24V25H34.6648L34.8415 24.2213L33.8663 24ZM27.5023 24L26.5577 23.6716L26.0959 25H27.5023V24ZM30.4993 15.379L31.4438 15.7074L31.555 15.3877L31.4491 15.0662L30.4993 15.379ZM27.5023 6.277V5.277H26.1202L26.5524 6.58975L27.5023 6.277ZM34.2363 6.277L35.2188 6.09077L35.0645 5.277H34.2363V6.277ZM35.3093 11.938L34.3268 12.1242L34.481 12.938H35.3093V11.938ZM35.5313 11.938V12.938H36.349L36.5114 12.1366L35.5313 11.938ZM36.6783 6.277V5.277H35.8606L35.6982 6.07842L36.6783 6.277ZM43.0053 6.277L43.9551 6.58971L44.3873 5.277H43.0053V6.277ZM40.0453 15.268L39.0954 14.9553L38.9896 15.2766L39.1007 15.5962L40.0453 15.268ZM43.0793 23H36.5303V25H43.0793V23ZM37.5024 23.7656L36.2444 18.5486L34.3001 19.0174L35.5581 24.2344L37.5024 23.7656ZM35.2723 17.783H35.0503V19.783H35.2723V17.783ZM34.0751 18.5617L32.8911 23.7787L34.8415 24.2213L36.0255 19.0043L34.0751 18.5617ZM33.8663 23H27.5023V25H33.8663V23ZM28.4468 24.3284L31.4438 15.7074L29.5547 15.0506L26.5577 23.6716L28.4468 24.3284ZM31.4491 15.0662L28.4521 5.96425L26.5524 6.58975L29.5494 15.6918L31.4491 15.0662ZM27.5023 7.277H34.2363V5.277H27.5023V7.277ZM33.2538 6.46323L34.3268 12.1242L36.2918 11.7518L35.2188 6.09077L33.2538 6.46323ZM35.3093 12.938H35.5313V10.938H35.3093V12.938ZM36.5114 12.1366L37.6584 6.47558L35.6982 6.07842L34.5512 11.7394L36.5114 12.1366ZM36.6783 7.277H43.0053V5.277H36.6783V7.277ZM42.0554 5.96429L39.0954 14.9553L40.9951 15.5807L43.9551 6.58971L42.0554 5.96429ZM39.1007 15.5962L42.1347 24.3282L44.0239 23.6718L40.9899 14.9398L39.1007 15.5962ZM50.5391 11.79L51.4439 12.2158L51.4485 12.206L51.4529 12.1961L50.5391 11.79ZM50.2431 13.751H49.2431V14.751H50.2431V13.751ZM53.4621 13.751V14.751H54.4621V13.751H53.4621ZM57.3841 7.683L56.6334 8.34363L56.6404 8.35159L56.6476 8.3594L57.3841 7.683ZM58.7901 16.896V17.896H59.7198L59.7875 16.9687L58.7901 16.896ZM50.3541 16.896V15.896H49.3541V16.896H50.3541ZM57.6801 18.82L58.6738 18.7078L58.5469 17.584L57.4471 17.8475L57.6801 18.82ZM58.1981 23.408L58.4938 24.3633L59.2847 24.1185L59.1918 23.2958L58.1981 23.408ZM46.1361 21.891L45.3586 22.5199L45.3632 22.5255L46.1361 21.891ZM51.7971 10.124C51.3681 10.124 50.9292 10.1973 50.5337 10.4067C50.121 10.6252 49.8126 10.9625 49.6253 11.3839L51.4529 12.1961C51.4608 12.1784 51.4651 12.1752 51.4625 12.178C51.4597 12.1811 51.4596 12.1795 51.4695 12.1743C51.4933 12.1617 51.5847 12.124 51.7971 12.124V10.124ZM49.6343 11.3642C49.3399 11.9897 49.2431 12.8265 49.2431 13.751H51.2431C51.2431 12.8995 51.3436 12.4289 51.4439 12.2158L49.6343 11.3642ZM50.2431 14.751H53.4621V12.751H50.2431V14.751ZM54.4621 13.751V12.863H52.4621V13.751H54.4621ZM54.4621 12.863C54.4621 12.1398 54.2897 11.4119 53.7682 10.8672C53.2389 10.3144 52.5176 10.124 51.7971 10.124V12.124C52.1866 12.124 52.2978 12.2235 52.3236 12.2503C52.357 12.2853 52.4621 12.4269 52.4621 12.863H54.4621ZM51.9451 6.833C54.3548 6.833 55.8213 7.42075 56.6334 8.34363L58.1348 7.02237C56.7763 5.47859 54.6167 4.833 51.9451 4.833V6.833ZM56.6476 8.3594C57.5325 9.32302 58.0491 10.7846 58.0491 12.9H60.0491C60.0491 10.4767 59.4557 8.46032 58.1206 7.00659L56.6476 8.3594ZM58.0491 12.9C58.0491 13.1486 57.9675 14.4271 57.7928 16.8233L59.7875 16.9687C59.9581 14.6289 60.0491 13.2434 60.0491 12.9H58.0491ZM58.7901 15.896H50.3541V17.896H58.7901V15.896ZM49.3541 16.896C49.3541 17.9554 49.596 18.9365 50.2564 19.6543C50.9313 20.3879 51.8795 20.671 52.9071 20.671V18.671C52.2327 18.671 51.9044 18.4916 51.7283 18.3002C51.5377 18.093 51.3541 17.6866 51.3541 16.896H49.3541ZM52.9071 20.671C53.8589 20.671 55.5647 20.3551 57.9131 19.7925L57.4471 17.8475C55.0595 18.4196 53.5833 18.671 52.9071 18.671V20.671ZM56.6864 18.9322L57.2044 23.5202L59.1918 23.2958L58.6738 18.7078L56.6864 18.9322ZM57.9024 22.4527C55.9217 23.0658 53.9493 23.37 51.9821 23.37V25.37C54.159 25.37 56.3305 25.0329 58.4938 24.3633L57.9024 22.4527ZM51.9821 23.37C49.6783 23.37 48.0394 22.6334 46.909 21.2565L45.3632 22.5255C46.9462 24.4539 49.2046 25.37 51.9821 25.37V23.37ZM46.9136 21.2621C45.7419 19.8135 45.1011 17.7904 45.1011 15.083H43.1011C43.1011 18.0982 43.817 20.6139 45.3586 22.5199L46.9136 21.2621ZM45.1011 15.083C45.1011 12.1172 45.7333 10.0794 46.8248 8.79226C47.8895 7.53673 49.5317 6.833 51.9451 6.833V4.833C49.1292 4.833 46.8494 5.67094 45.2994 7.49874C43.7762 9.29496 43.1011 11.8821 43.1011 15.083H45.1011ZM60.7653 0.282999V-0.717001H59.7653V0.282999H60.7653ZM66.8703 0.282999H67.8703V-0.717001H66.8703V0.282999ZM67.1293 18.857L66.4222 19.5641L66.4457 19.5877L66.4708 19.6096L67.1293 18.857ZM68.1283 19.116L69.1241 19.2072L69.224 18.116H68.1283V19.116ZM67.6473 24.37V25.37H68.5599L68.6431 24.4612L67.6473 24.37ZM61.9493 23.371L61.2908 24.1236L61.3032 24.1345L61.316 24.145L61.9493 23.371ZM61.7653 19.93V0.282999H59.7653V19.93H61.7653ZM60.7653 1.283H66.8703V-0.717001H60.7653V1.283ZM65.8703 0.282999V17.969H67.8703V0.282999H65.8703ZM65.8703 17.969C65.8703 18.476 65.9656 19.1076 66.4222 19.5641L67.8364 18.1499C67.8962 18.2097 67.9032 18.2537 67.895 18.2255C67.886 18.1945 67.8703 18.1155 67.8703 17.969H65.8703ZM66.4708 19.6096C66.9476 20.0268 67.5889 20.116 68.1283 20.116V18.116C67.9503 18.116 67.839 18.0991 67.778 18.0833C67.717 18.0674 67.7385 18.0613 67.7878 18.1044L66.4708 19.6096ZM67.1324 19.0248L66.6514 24.2788L68.6431 24.4612L69.1241 19.2072L67.1324 19.0248ZM67.6473 23.37H65.6123V25.37H67.6473V23.37ZM65.6123 23.37C64.0951 23.37 63.143 23.0556 62.5825 22.597L61.316 24.145C62.3836 25.0184 63.8734 25.37 65.6123 25.37V23.37ZM62.6078 22.6184C62.1287 22.1992 61.7653 21.3977 61.7653 19.93H59.7653C59.7653 21.669 60.1912 23.1615 61.2908 24.1236L62.6078 22.6184Z" fill="black"/>
</svg>
