<svg width="69" height="25" viewBox="0 0 69 25" fill="none" xmlns="http://www.w3.org/2000/svg">
<path opacity="0.93" d="M18.241 1.023L14.356 24H4.588L0.444 1.023H7.437L9.435 16.082H10.064L11.581 1.023H18.241ZM26.0437 24H19.9387V6.462H26.0437V24ZM20.4197 5.056C19.9017 4.612 19.6427 3.89667 19.6427 2.91C19.6427 1.92333 19.9017 1.19567 20.4197 0.727C20.9377 0.258333 21.7887 0.0239999 22.9727 0.0239999C24.1567 0.0239999 25.0077 0.258333 25.5257 0.727C26.0437 1.19567 26.3027 1.92333 26.3027 2.91C26.3027 3.872 26.0437 4.58733 25.5257 5.056C25.0077 5.5 24.1567 5.722 22.9727 5.722C21.7887 5.722 20.9377 5.5 20.4197 5.056ZM43.0793 24H36.5303L35.2723 18.783H35.0503L33.8663 24H27.5023L30.4993 15.379L27.5023 6.277H34.2363L35.3093 11.938H35.5313L36.6783 6.277H43.0053L40.0453 15.268L43.0793 24ZM51.7971 11.124C51.1558 11.124 50.7364 11.346 50.5391 11.79C50.3418 12.2093 50.2431 12.863 50.2431 13.751H53.4621V12.863C53.4621 11.7037 52.9071 11.124 51.7971 11.124ZM51.9451 5.833C54.4858 5.833 56.2988 6.44967 57.3841 7.683C58.4941 8.89167 59.0491 10.6307 59.0491 12.9C59.0491 13.196 58.9628 14.528 58.7901 16.896H50.3541C50.3541 18.746 51.2051 19.671 52.9071 19.671C53.7211 19.671 55.3121 19.3873 57.6801 18.82L58.1981 23.408C56.1261 24.0493 54.0541 24.37 51.9821 24.37C49.4414 24.37 47.4928 23.5437 46.1361 21.891C44.7794 20.2137 44.1011 17.9443 44.1011 15.083C44.1011 8.91633 46.7158 5.833 51.9451 5.833ZM60.7653 19.93V0.282999H66.8703V17.969C66.8703 18.3883 66.9566 18.6843 67.1293 18.857C67.3266 19.0297 67.6596 19.116 68.1283 19.116L67.6473 24.37H65.6123C63.9843 24.37 62.7633 24.037 61.9493 23.371C61.1599 22.6803 60.7653 21.5333 60.7653 19.93Z" fill="#E9204F"/>
</svg>
